<svg t="1769388734473" class="icon" viewBox="0 0 1024 1024" version="1.1" xmlns="http://www.w3.org/2000/svg" p-id="53301" width="256" height="256"><path d="M700.648727 247.296a27.927273 27.927273 0 0 1 38.865455-6.981818 396.101818 396.101818 0 0 1 167.982545 282.298182 27.927273 27.927273 0 0 1-55.528727 6.050909 340.247273 340.247273 0 0 0-144.337455-242.501818 27.927273 27.927273 0 0 1-6.981818-38.865455zM325.259636 249.250909a27.927273 27.927273 0 0 1-6.702545 38.958546 339.083636 339.083636 0 0 0-141.963636 242.408727 27.927273 27.927273 0 0 1-55.528728-5.678546 394.938182 394.938182 0 0 1 165.236364-282.344727 27.927273 27.927273 0 0 1 38.958545 6.656zM324.514909 880.779636a27.927273 27.927273 0 0 1 37.515636-12.241454c45.614545 23.226182 97.605818 36.212364 152.48291 36.212363a333.777455 333.777455 0 0 0 146.897454-33.419636 27.927273 27.927273 0 1 1 24.482909 50.222546 389.585455 389.585455 0 0 1-171.380363 39.098181 391.633455 391.633455 0 0 1-177.803637-42.356363 27.927273 27.927273 0 0 1-12.194909-37.515637zM514.56 119.249455a90.670545 90.670545 0 1 0 0 181.34109 90.670545 90.670545 0 0 0 0-181.34109zM367.988364 209.92a146.525091 146.525091 0 1 1 293.096727 0 146.525091 146.525091 0 0 1-293.096727 0zM206.010182 640.605091a90.670545 90.670545 0 1 0 0 181.387636 90.670545 90.670545 0 0 0 0-181.387636z m-146.571637 90.717091a146.525091 146.525091 0 1 1 293.096728 0 146.525091 146.525091 0 0 1-293.096728 0zM817.989818 640.605091a90.670545 90.670545 0 1 0 0 181.387636 90.670545 90.670545 0 0 0 0-181.387636z m-146.525091 90.717091a146.525091 146.525091 0 1 1 293.050182 0 146.525091 146.525091 0 0 1-293.050182 0z" fill="#000000" p-id="53302"></path></svg>