<svg t="1769388471013" class="icon" viewBox="0 0 1024 1024" version="1.1" xmlns="http://www.w3.org/2000/svg" p-id="31082" width="256" height="256"><path d="M674.635294 445.741176h132.517647c54.211765 0 96.376471 42.164706 96.376471 96.376471v385.505882c0 54.211765-42.164706 96.376471-96.376471 96.376471H216.847059C162.635294 1024 120.470588 981.835294 120.470588 927.623529V542.117647c0-54.211765 42.164706-96.376471 96.376471-96.376471h457.788235z m-325.270588 0h325.270588-325.270588zM186.729412 572.235294v319.247059c0 36.141176 30.117647 66.258824 66.258823 66.258823h524.047059c36.141176 0 66.258824-30.117647 66.258824-66.258823V572.235294c0-36.141176-30.117647-66.258824-66.258824-66.258823H252.988235c-36.141176 6.023529-66.258824 30.117647-66.258823 66.258823z m325.270588 96.376471c18.070588 0 30.117647 12.047059 30.117647 30.117647v126.494117c0 18.070588-12.047059 30.117647-30.117647 30.117647s-30.117647-6.023529-30.117647-24.094117v-126.494118c0-18.070588 12.047059-36.141176 30.117647-36.141176z" fill="#212121" p-id="31083"></path><path d="M367.435294 265.035294C367.435294 186.729412 433.694118 120.470588 512 120.470588S662.588235 186.729412 662.588235 265.035294v210.82353c0 18.070588 12.047059 6.023529 30.117647 6.023529s30.117647 12.047059 30.117647-6.023529V265.035294C722.823529 150.588235 626.447059 54.211765 512 54.211765S301.176471 150.588235 301.176471 265.035294v240.941177h102.4c18.070588 0 30.117647-12.047059 30.117647-30.117647s-12.047059-30.117647-30.117647-30.117648h-36.141177v-180.705882z" fill="#212121" p-id="31084"></path></svg>