<svg t="1769388426993" class="icon" viewBox="0 0 1024 1024" version="1.1" xmlns="http://www.w3.org/2000/svg" p-id="24839" width="256" height="256"><path d="M275.2 256h-106.666667c-23.466667 0-42.666667-19.2-42.666666-42.666667s19.2-42.666667 42.666666-42.666666h106.666667c23.466667 0 42.666667 19.2 42.666667 42.666666s-19.2 42.666667-42.666667 42.666667z" p-id="24840"></path><path d="M317.866667 213.333333v106.666667c0 23.466667-19.2 42.666667-42.666667 42.666667s-42.666667-19.2-42.666667-42.666667v-106.666667c0-23.466667 19.2-42.666667 42.666667-42.666666s42.666667 19.2 42.666667 42.666666zM744.533333 768h106.666667c23.466667 0 42.666667 19.2 42.666667 42.666667s-19.2 42.666667-42.666667 42.666666h-106.666667c-23.466667 0-42.666667-19.2-42.666666-42.666666s19.2-42.666667 42.666666-42.666667z" p-id="24841"></path><path d="M701.866667 810.666667v-106.666667c0-23.466667 19.2-42.666667 42.666666-42.666667s42.666667 19.2 42.666667 42.666667v106.666667c0 23.466667-19.2 42.666667-42.666667 42.666666s-42.666667-19.2-42.666666-42.666666zM168.533333 512c0-93.866667 38.4-179.2 100.266667-241.066667L206.933333 211.2C130.133333 288 83.2 394.666667 83.2 512c0 234.666667 192 426.666667 426.666667 426.666667v-85.333334c-187.733333 0-341.333333-153.6-341.333334-341.333333z" p-id="24842"></path><path d="M509.866667 85.333333v85.333334c187.733333 0 341.333333 153.6 341.333333 341.333333 0 93.866667-38.4 179.2-100.266667 241.066667l59.733334 59.733333c76.8-76.8 125.866667-183.466667 125.866666-300.8 0-234.666667-192-426.666667-426.666666-426.666667z" p-id="24843"></path><path d="M509.866667 128m-42.666667 0a42.666667 42.666667 0 1 0 85.333333 0 42.666667 42.666667 0 1 0-85.333333 0Z" p-id="24844"></path><path d="M509.866667 896m-42.666667 0a42.666667 42.666667 0 1 0 85.333333 0 42.666667 42.666667 0 1 0-85.333333 0Z" p-id="24845"></path></svg>