<svg t="1769388661169" class="icon" viewBox="0 0 1024 1024" version="1.1" xmlns="http://www.w3.org/2000/svg" p-id="48945" width="256" height="256"><path d="M512 51.596899c-254.015504 0-461.196899 206.387597-461.196899 460.403101s206.387597 460.403101 461.196899 460.403101c254.015504 0 460.403101-206.387597 460.403101-460.403101s-206.387597-460.403101-460.403101-460.403101z m0 856.508527C293.705426 908.105426 115.894574 730.294574 115.894574 512S293.705426 115.894574 512 115.894574s396.105426 177.810853 396.105426 396.105426-177.810853 396.105426-396.105426 396.105426z" fill="" p-id="48946"></path><path d="M723.944186 475.485271H544.545736V295.293023c0-18.257364-14.288372-32.545736-32.545736-32.545736s-32.545736 14.288372-32.545736 32.545736v179.39845H300.055814c-18.257364 0-32.545736 14.288372-32.545736 32.545736s14.288372 32.545736 32.545736 32.545737h179.39845v179.398449c0 18.257364 14.288372 32.545736 32.545736 32.545737s32.545736-14.288372 32.545736-32.545737V539.782946h179.39845c18.257364 0 32.545736-14.288372 32.545736-32.545737s-14.288372-31.751938-32.545736-31.751938z" fill="" p-id="48947"></path></svg>